<?xml version="1.0" standalone="no"?>
<!DOCTYPE svg PUBLIC "-//W3C//DTD SVG 20010904//EN"
 "http://www.w3.org/TR/2001/REC-SVG-20010904/DTD/svg10.dtd">
<svg version="1.0" xmlns="http://www.w3.org/2000/svg"
 width="282.000000pt" height="282.000000pt" viewBox="0 0 282.000000 282.000000"
 preserveAspectRatio="xMidYMid meet">
<metadata>
Created by potrace 1.11, written by Peter Selinger 2001-2013
</metadata>
<g transform="translate(0.000000,282.000000) scale(0.100000,-0.100000)"
fill="#000000" stroke="none">
<path d="M1375 2700 c-4 -6 -11 -8 -16 -5 -5 4 -9 1 -9 -6 0 -8 -4 -8 -15 1
-12 10 -15 10 -15 0 0 -7 -8 -10 -20 -7 -11 3 -20 1 -20 -5 0 -5 -4 -6 -10 -3
-5 3 -10 2 -10 -4 0 -6 -6 -8 -14 -5 -8 3 -17 0 -21 -6 -5 -8 -11 -8 -21 1
-11 9 -14 8 -14 -5 0 -10 -4 -15 -8 -12 -5 3 -21 -1 -36 -9 -18 -10 -24 -10
-20 -2 4 7 -2 4 -13 -5 -11 -10 -25 -18 -31 -18 -6 0 -31 -11 -55 -25 -25 -13
-47 -21 -51 -18 -3 4 -6 1 -6 -5 0 -7 -7 -12 -15 -12 -8 0 -15 -5 -15 -11 0
-5 -4 -8 -9 -4 -6 3 -14 -3 -20 -12 -6 -10 -11 -14 -11 -10 0 5 -7 1 -16 -8
-9 -9 -23 -14 -31 -11 -8 3 -12 2 -8 -3 3 -5 -9 -20 -27 -32 -18 -13 -36 -28
-40 -34 -4 -5 -8 -6 -8 -1 0 5 -15 -7 -34 -27 -18 -20 -35 -35 -37 -33 -2 1
-12 -6 -21 -16 -10 -10 -15 -18 -11 -18 4 0 -8 -11 -27 -25 -19 -14 -31 -25
-27 -25 4 0 -8 -16 -26 -34 -17 -19 -43 -51 -57 -71 -14 -20 -30 -42 -37 -49
-7 -8 -9 -16 -6 -20 4 -3 1 -6 -6 -6 -7 0 -9 -4 -6 -10 3 -5 -1 -10 -10 -10
-9 0 -14 -4 -10 -9 3 -5 -5 -17 -17 -25 -12 -9 -18 -16 -13 -16 6 0 4 -4 -4
-9 -8 -5 -16 -18 -17 -27 -2 -10 -11 -24 -20 -31 -12 -9 -14 -13 -4 -13 8 0 5
-7 -8 -19 -12 -10 -18 -21 -14 -25 4 -4 -1 -12 -10 -17 -10 -5 -15 -16 -12
-24 4 -8 1 -15 -6 -15 -6 0 -9 -4 -5 -9 3 -5 1 -12 -5 -16 -6 -4 -8 -10 -5
-15 3 -5 1 -11 -5 -15 -6 -4 -8 -10 -5 -15 3 -4 -2 -13 -10 -20 -12 -10 -13
-16 -3 -28 10 -13 10 -14 1 -8 -13 7 -16 0 -16 -36 0 -10 -4 -18 -9 -18 -6 0
-8 -11 -6 -25 3 -14 2 -28 -3 -31 -5 -3 -7 -18 -5 -34 2 -17 0 -30 -5 -30 -5
0 -5 -7 -2 -17 4 -10 2 -14 -4 -10 -5 3 -10 0 -10 -8 0 -8 5 -11 11 -8 6 4 5
0 -2 -9 -10 -13 -10 -17 0 -21 10 -4 10 -6 1 -6 -17 -1 -17 -33 0 -50 10 -11
9 -13 0 -7 -9 5 -13 0 -13 -16 0 -13 6 -30 13 -37 7 -8 7 -11 1 -8 -7 4 -11
-3 -11 -18 0 -14 3 -23 7 -20 3 2 7 -2 7 -10 0 -8 -4 -12 -9 -9 -4 3 -8 -2 -8
-11 0 -10 5 -13 13 -9 7 5 6 0 -3 -11 -9 -11 -10 -16 -3 -11 10 5 13 -4 13
-34 0 -23 5 -50 10 -61 8 -14 7 -19 -2 -19 -7 0 -5 -5 6 -11 15 -9 16 -13 5
-20 -11 -7 -11 -9 -1 -9 7 0 10 -4 7 -10 -3 -5 -1 -10 5 -10 6 0 8 -5 5 -10
-4 -6 -1 -18 6 -26 11 -13 18 -40 21 -81 1 -7 5 -13 10 -13 4 0 8 -7 8 -15 0
-8 4 -15 8 -15 4 0 9 -10 9 -22 1 -13 7 -24 13 -26 5 -2 8 -8 4 -13 -3 -5 3
-9 13 -9 15 0 16 -2 3 -10 -11 -7 -11 -10 -2 -10 7 0 11 -4 8 -9 -3 -5 1 -12
10 -15 8 -3 14 -14 12 -23 -2 -11 2 -17 11 -15 8 2 11 -3 8 -12 -4 -9 0 -13
11 -12 9 2 18 9 20 16 3 8 0 10 -7 5 -8 -4 -12 -2 -10 6 3 28 -1 39 -16 39 -8
0 -14 3 -13 8 4 14 -14 52 -22 47 -4 -3 -7 1 -7 8 1 24 -16 77 -25 77 -5 0 -6
5 -3 10 3 6 2 10 -4 10 -6 0 -8 7 -5 15 4 8 1 15 -6 15 -10 0 -10 3 -1 14 8 9
8 15 2 18 -6 1 -12 15 -13 31 -1 15 -6 27 -11 27 -5 0 -7 9 -4 20 3 11 2 20
-2 20 -4 0 -6 16 -6 35 1 19 -1 35 -5 35 -8 0 -6 57 2 66 4 3 0 17 -8 29 -14
21 -14 24 3 28 14 4 15 5 2 6 -13 1 -15 8 -9 40 4 25 3 44 -3 50 -8 8 -7 11 2
11 7 0 11 6 8 14 -3 7 0 19 6 25 9 9 9 14 -2 20 -8 5 -9 11 -3 15 6 3 9 14 7
24 -1 9 2 23 8 30 6 8 5 12 -4 12 -11 0 -11 2 1 10 8 5 11 10 6 10 -5 0 -2 8
5 17 12 15 12 16 -1 8 -13 -8 -13 -6 -2 8 8 9 12 22 10 29 -3 7 2 18 11 25 14
11 14 12 1 13 -9 0 -11 3 -5 8 6 4 16 17 23 30 10 18 10 22 0 22 -8 0 -5 7 6
15 11 8 16 15 12 15 -5 0 -3 6 3 13 6 8 8 17 4 20 -3 4 -1 7 6 7 7 0 9 5 6 10
-3 5 -1 10 5 10 6 0 9 4 6 9 -3 5 1 14 9 21 8 7 12 16 9 21 -3 5 0 9 5 9 6 0
10 3 9 8 -3 15 25 61 35 55 6 -3 7 -1 3 5 -3 6 1 17 9 25 8 9 15 20 15 25 0 6
7 13 16 16 9 4 14 9 11 13 -4 3 5 14 18 25 14 11 25 26 25 34 0 8 5 12 10 9 6
-3 10 0 10 7 0 7 26 36 57 63 30 28 66 60 80 72 13 13 27 24 31 25 4 2 6 6 4
11 -1 4 1 6 5 6 23 -4 43 2 38 11 -3 5 6 12 20 16 14 3 25 10 25 14 0 4 20 16
44 26 24 10 42 22 39 27 -3 5 1 7 8 6 23 -3 79 22 73 33 -4 6 2 8 16 3 14 -5
25 -2 30 5 7 11 32 19 78 22 6 1 12 5 12 9 0 4 7 10 16 13 10 4 13 2 8 -6 -5
-7 -3 -8 5 -4 7 5 27 10 44 13 18 3 38 10 45 16 10 8 16 7 22 -2 5 -9 10 -10
14 -3 3 6 29 10 56 9 28 -1 50 0 50 3 0 3 27 3 60 0 37 -4 61 -2 64 5 3 6 5 5
5 -2 1 -7 8 -10 16 -7 8 4 23 0 32 -7 12 -10 15 -10 9 -1 -4 6 -2 12 3 12 6 0
11 -6 11 -12 0 -9 4 -8 10 2 8 12 10 12 10 1 0 -8 7 -11 20 -8 11 3 20 2 20
-2 0 -4 12 -7 28 -6 15 0 30 -4 34 -10 5 -6 8 -4 8 4 0 11 4 10 16 -5 8 -10
13 -14 9 -7 -4 9 3 8 21 -2 15 -8 31 -12 36 -9 4 3 8 0 8 -6 0 -7 7 -10 15 -6
8 3 15 0 15 -6 0 -6 6 -5 17 3 14 12 16 12 8 0 -6 -11 -2 -13 21 -7 21 5 25 4
14 -3 -13 -9 -13 -12 -1 -23 10 -10 12 -10 7 0 -7 11 -3 13 37 16 7 1 11 -7 9
-18 -3 -18 -2 -18 14 -5 16 13 17 12 11 -5 -6 -14 -5 -16 5 -8 15 11 104 -19
92 -31 -4 -4 2 -7 14 -7 11 0 22 -4 24 -9 2 -5 10 -11 18 -13 8 -2 23 -12 33
-23 10 -11 16 -14 12 -5 -4 10 -2 9 8 -2 8 -10 17 -15 20 -11 4 3 7 -1 7 -11
0 -9 4 -15 8 -12 5 3 15 -4 22 -15 8 -10 20 -19 26 -19 7 0 14 -6 17 -12 5
-16 63 16 60 32 -2 5 3 10 11 10 8 0 18 5 22 12 5 7 3 8 -7 3 -12 -8 -12 -6 0
8 7 9 17 14 22 11 5 -3 9 2 9 11 0 9 4 13 10 10 5 -3 18 8 28 24 10 17 21 30
23 28 3 -1 -3 5 -13 14 -9 9 -14 19 -11 23 4 3 -1 6 -10 6 -10 0 -17 3 -17 8
0 4 -18 18 -40 32 -22 14 -40 28 -40 32 0 5 -6 8 -14 8 -8 0 -17 7 -20 16 -3
9 -12 14 -18 12 -7 -3 -18 0 -24 6 -44 41 -72 57 -58 34 4 -7 -4 -3 -17 8 -23
21 -66 40 -81 36 -5 -1 -8 6 -9 15 0 12 -2 13 -6 5 -4 -10 -10 -9 -26 5 -11
10 -17 12 -12 4 5 -9 -1 -7 -19 4 -14 10 -26 14 -26 10 0 -5 -8 -2 -17 7 -10
8 -30 14 -45 13 -16 0 -28 3 -28 7 0 4 -7 5 -15 2 -8 -4 -17 1 -21 10 -5 12
-10 14 -19 6 -9 -8 -14 -7 -18 2 -4 10 -6 10 -6 0 -1 -9 -9 -9 -36 3 -25 10
-34 11 -28 2 5 -9 4 -9 -8 0 -19 16 -351 15 -361 -1 -5 -7 -8 -7 -8 3 0 11 -3
11 -17 0 -11 -10 -14 -10 -9 -1 4 6 5 12 2 12 -3 0 -8 -5 -11 -10z"/>
<path d="M1333 2430 c-13 -5 -23 -6 -23 -2 0 4 -5 0 -10 -8 -7 -11 -10 -11
-10 -2 0 8 -5 10 -12 5 -7 -4 -24 -9 -38 -11 -14 -2 -26 -7 -28 -13 -2 -5 -8
-9 -13 -9 -6 0 -7 5 -3 11 3 6 -5 4 -18 -5 -14 -9 -27 -13 -30 -10 -4 3 -17 0
-30 -7 -12 -7 -26 -12 -30 -11 -5 1 -8 -2 -8 -8 0 -5 -7 -7 -15 -4 -8 4 -15 1
-15 -6 0 -7 -7 -10 -15 -7 -8 4 -17 1 -21 -5 -5 -7 -2 -8 6 -3 9 5 11 4 6 -4
-4 -6 -11 -9 -16 -6 -5 3 -20 0 -32 -7 -13 -7 -27 -12 -32 -13 -5 0 -11 -6
-14 -14 -3 -9 0 -11 8 -6 9 6 11 4 5 -4 -5 -9 -11 -9 -17 -3 -14 14 -38 4 -32
-13 3 -8 -3 -12 -17 -11 -12 0 -24 -4 -26 -10 -2 -6 4 -10 14 -9 31 3 53 17
46 29 -4 8 -2 8 7 -1 10 -9 17 -7 33 8 12 11 27 17 34 15 6 -3 13 0 15 5 3 9
22 15 51 18 5 1 6 5 3 9 -4 7 12 11 57 13 9 0 17 5 17 11 0 5 7 8 15 4 8 -3
15 0 15 7 0 8 4 6 10 -3 8 -12 10 -12 10 -1 0 9 8 12 25 9 14 -3 28 -1 31 3 3
5 16 9 30 9 13 0 24 6 24 13 0 8 4 7 10 -3 8 -13 10 -13 10 0 0 10 3 11 11 3
7 -7 20 -8 33 -4 25 9 123 8 132 -2 4 -4 14 -1 22 6 12 10 16 9 20 -1 3 -10 7
-10 18 -1 8 6 14 7 14 2 0 -5 19 -10 43 -11 23 -1 43 -6 45 -11 2 -6 10 -7 17
-5 8 3 20 2 27 -2 7 -5 22 -8 33 -9 12 0 19 -6 17 -14 -2 -11 0 -12 10 -3 8 6
19 7 28 2 8 -5 18 -6 22 -4 4 3 8 1 8 -4 0 -5 7 -9 15 -10 8 -1 22 -3 30 -4 8
-1 15 -7 15 -14 0 -8 6 -11 15 -8 8 4 15 1 15 -5 0 -6 3 -10 8 -9 11 4 72 -26
72 -35 0 -5 4 -6 8 -3 5 3 18 -3 30 -14 11 -11 27 -21 34 -22 7 -2 25 -16 40
-32 16 -15 28 -24 28 -20 0 5 4 5 8 -1 4 -5 26 -27 49 -47 23 -20 39 -39 35
-42 -3 -3 2 -6 11 -6 8 0 19 -9 22 -20 4 -11 11 -18 16 -15 5 4 9 -1 9 -9 0
-9 5 -16 10 -16 6 0 10 -7 10 -16 0 -8 4 -13 9 -10 5 3 14 -8 21 -24 7 -16 16
-27 21 -24 5 3 9 -4 9 -15 0 -12 5 -21 10 -21 6 0 10 -7 10 -15 0 -8 5 -15 10
-15 6 0 10 -9 10 -19 0 -10 7 -21 15 -25 8 -3 12 -12 9 -21 -4 -10 0 -15 12
-15 15 0 16 -2 5 -9 -10 -7 -11 -9 -1 -13 12 -4 19 -22 22 -55 1 -7 6 -13 11
-13 5 0 7 -7 3 -15 -3 -8 -1 -15 5 -15 6 0 7 -4 4 -10 -3 -5 -1 -10 5 -10 6 0
8 -4 5 -10 -3 -5 -1 -10 4 -10 6 0 11 -5 11 -11 0 -5 -4 -8 -10 -4 -5 3 -3 -7
5 -22 8 -15 15 -38 15 -50 0 -12 4 -24 10 -28 6 -4 6 -15 0 -30 -7 -17 -6 -25
1 -25 7 0 6 -6 -2 -17 -11 -13 -11 -15 -1 -9 10 6 13 2 10 -16 -1 -14 3 -33
11 -42 12 -14 12 -16 -2 -11 -8 4 -18 1 -23 -6 -4 -7 -3 -10 2 -6 6 3 16 -3
23 -15 9 -15 9 -18 0 -13 -9 6 -10 1 -5 -19 4 -18 3 -25 -4 -21 -7 4 -7 -2 0
-19 6 -16 6 -26 0 -26 -5 0 -7 -7 -4 -15 4 -8 0 -23 -7 -32 -12 -14 -12 -16 0
-8 11 6 13 4 7 -11 -4 -10 -10 -30 -12 -43 -3 -14 -8 -29 -11 -35 -4 -6 0 -5
9 2 14 11 16 10 11 -7 -3 -12 -9 -18 -14 -15 -5 3 -9 3 -9 0 0 -3 8 -10 18
-15 13 -7 19 -6 19 2 1 23 12 67 19 78 4 8 3 9 -4 5 -17 -10 -15 10 2 26 11
11 11 15 -3 25 -15 12 -15 13 0 8 13 -5 16 2 16 38 0 24 3 49 7 56 4 6 2 11
-4 11 -7 0 -8 6 0 19 13 26 13 34 -2 25 -7 -5 -8 -3 -3 6 7 12 8 56 1 140 -1
14 -5 31 -9 38 -5 7 -3 12 5 12 9 0 10 2 2 8 -7 4 -15 25 -18 47 -10 61 -16
76 -29 68 -7 -4 -6 1 2 10 9 11 10 17 2 17 -6 0 -11 11 -11 25 0 14 -4 25 -10
25 -5 0 -10 11 -10 25 0 14 -5 25 -11 25 -5 0 -8 4 -4 9 3 5 1 12 -5 16 -6 4
-8 11 -5 16 4 5 2 9 -2 9 -5 0 -20 22 -34 50 -13 27 -27 50 -31 50 -5 0 -8 9
-8 20 0 12 -7 20 -17 20 -9 0 -14 3 -10 6 6 6 -2 18 -38 57 -11 12 -19 25 -18
29 2 5 -4 8 -13 8 -8 0 -12 5 -9 10 3 6 0 10 -8 10 -15 0 -32 27 -28 43 1 5
-3 5 -9 2 -6 -4 -24 7 -39 24 -15 17 -33 31 -40 31 -7 0 -9 5 -6 10 3 6 1 10
-6 10 -6 0 -20 10 -30 22 -11 12 -19 16 -19 8 0 -8 -7 -5 -18 8 -10 11 -25 22
-33 24 -8 2 -22 12 -31 22 -10 10 -18 15 -18 10 0 -5 -5 -2 -10 6 -8 13 -10
13 -10 1 0 -12 -2 -12 -12 1 -7 8 -40 25 -73 38 -33 13 -64 27 -69 31 -5 4
-15 5 -22 2 -8 -3 -14 0 -14 6 0 6 -5 11 -11 11 -5 0 -7 -4 -4 -10 3 -6 -1 -7
-9 -4 -9 3 -13 10 -10 15 3 5 -1 6 -9 3 -8 -3 -18 0 -22 6 -6 9 -10 9 -16 -1
-7 -11 -9 -11 -9 -1 0 7 -5 10 -10 7 -6 -4 -18 -1 -27 7 -14 11 -16 11 -8 -2
5 -9 -1 -7 -15 5 -13 11 -20 15 -17 8 4 -6 3 -14 -3 -18 -5 -3 -10 -1 -10 5 0
6 -4 8 -10 5 -5 -3 -10 0 -10 7 0 9 -3 9 -10 -2 -5 -8 -10 -10 -10 -5 0 6 -37
10 -89 10 -59 0 -87 -3 -83 -10 3 -5 -2 -4 -11 4 -11 9 -17 10 -17 2 0 -6 -5
-11 -11 -11 -5 0 -7 5 -4 10 7 12 7 12 -22 0z"/>
<path d="M1950 2409 c0 -5 5 -7 10 -4 6 3 10 8 10 11 0 2 -4 4 -10 4 -5 0 -10
-5 -10 -11z"/>
<path d="M1475 2329 c-6 -8 -4 -10 5 -4 9 6 11 4 5 -4 -5 -9 -10 -10 -18 -2
-7 7 -16 7 -30 0 -13 -8 -17 -8 -13 -1 4 7 -4 9 -21 7 -16 -2 -28 -5 -28 -6 0
-3 -46 -9 -93 -12 -24 -2 -47 -8 -50 -13 -7 -9 -24 -15 -54 -17 -10 -1 -18 -5
-18 -10 0 -4 -4 -5 -10 -2 -5 3 -10 1 -10 -5 0 -6 -5 -8 -11 -5 -6 4 -17 -1
-25 -11 -9 -11 -12 -13 -9 -6 6 11 3 11 -16 0 -13 -7 -26 -16 -29 -19 -3 -4
-16 -10 -30 -14 -14 -4 -33 -14 -42 -23 -10 -8 -18 -12 -18 -7 0 4 -14 -7 -32
-23 -17 -17 -35 -29 -40 -26 -5 3 -7 0 -6 -7 2 -7 -4 -13 -12 -14 -8 -1 -14
-6 -12 -13 1 -7 -5 -12 -13 -12 -8 0 -15 -4 -15 -10 0 -5 -7 -10 -17 -10 -9 0
-14 -3 -10 -6 3 -3 -5 -16 -19 -29 -13 -12 -24 -28 -24 -34 0 -7 -3 -10 -7 -8
-8 5 -31 -15 -36 -30 -1 -5 -5 -7 -9 -5 -5 1 -8 -5 -8 -13 0 -23 -3 -29 -27
-51 -12 -12 -20 -24 -16 -27 3 -4 1 -7 -6 -7 -7 0 -11 -6 -9 -12 3 -7 -3 -21
-13 -32 -10 -10 -21 -32 -24 -47 -4 -16 -10 -27 -14 -25 -4 3 -8 -1 -9 -9 -1
-8 -3 -22 -4 -30 -1 -8 -5 -15 -10 -15 -5 0 -6 -5 -3 -10 4 -6 1 -18 -6 -26
-6 -8 -9 -17 -6 -21 4 -3 -1 -12 -11 -20 -16 -14 -16 -14 2 -8 18 5 19 4 4
-12 -8 -10 -14 -28 -13 -40 1 -13 -3 -23 -9 -23 -6 0 -4 -5 4 -10 9 -6 11 -10
3 -10 -7 0 -10 -7 -6 -17 4 -10 2 -14 -4 -10 -11 7 -11 -22 2 -42 5 -9 4 -12
-2 -8 -12 8 -11 -93 1 -112 6 -9 5 -12 -1 -8 -6 4 -13 0 -16 -8 -4 -9 -1 -12
9 -8 16 6 16 -17 -1 -29 -6 -5 -4 -8 5 -8 13 0 13 -1 0 -10 -12 -8 -12 -10 5
-10 13 0 16 -3 8 -8 -7 -5 -9 -13 -3 -21 4 -8 6 -21 3 -29 -3 -8 0 -18 8 -23
12 -7 12 -9 -1 -9 -12 -1 -12 -2 2 -10 9 -6 14 -18 11 -29 -3 -10 0 -22 6 -25
6 -4 11 -18 11 -31 0 -13 5 -27 10 -30 6 -4 8 -11 5 -16 -4 -5 -1 -9 5 -9 6 0
8 -4 5 -10 -3 -5 -1 -10 4 -10 6 0 10 -3 9 -7 -4 -12 26 -73 35 -73 5 0 5 -4
2 -10 -3 -5 -1 -10 4 -10 6 0 11 -6 11 -13 0 -7 9 -23 20 -35 12 -12 18 -22
15 -22 -2 0 5 -12 18 -27 35 -41 157 -163 164 -163 3 0 17 -12 31 -27 13 -16
21 -22 18 -16 -5 9 -2 11 8 7 9 -3 16 -13 16 -21 0 -8 4 -11 10 -8 5 3 10 1
10 -5 0 -6 4 -9 9 -5 5 3 15 0 23 -7 7 -7 22 -20 32 -28 18 -13 19 -13 11 0
-5 9 0 8 13 -4 12 -11 22 -15 22 -10 0 5 4 3 9 -4 4 -7 18 -14 29 -15 12 -1
22 -5 22 -9 0 -4 11 -8 24 -8 13 0 26 -4 28 -10 2 -5 18 -10 36 -12 17 -1 32
-5 32 -8 0 -6 43 -12 98 -13 17 -1 32 -6 32 -12 0 -5 5 -3 10 5 7 12 10 12 10
1 0 -7 6 -11 14 -8 7 3 18 1 24 -5 6 -6 12 -6 17 3 6 8 4 10 -5 4 -8 -5 -11
-4 -6 3 9 14 38 3 30 -12 -3 -6 2 -2 10 8 9 11 16 15 16 9 0 -13 42 -12 52 2
5 6 8 5 8 -4 0 -9 4 -10 13 -4 6 5 29 9 50 8 20 0 37 3 37 9 0 5 3 6 7 3 3 -4
13 -1 21 6 13 10 14 9 8 -1 -7 -11 -4 -12 11 -3 11 5 33 12 49 15 16 3 30 10
32 15 2 6 9 8 17 5 7 -3 16 0 20 5 3 6 11 9 16 6 5 -4 9 -1 9 6 0 7 3 10 6 6
4 -3 21 1 38 10 17 10 34 16 39 15 4 -1 7 2 7 8 0 5 7 10 16 10 8 0 12 4 9 10
-3 6 1 7 9 4 10 -4 18 1 22 10 3 9 12 15 19 14 11 -3 23 7 95 74 16 14 30 25
32 23 2 -2 14 12 28 31 14 18 31 34 38 34 6 0 12 7 12 15 0 8 9 20 19 27 10 6
17 18 14 25 -3 8 0 13 8 11 9 -2 13 4 11 16 -2 10 0 16 5 13 4 -2 22 18 40 45
17 26 28 46 22 43 -17 -11 -9 6 15 32 13 14 23 34 21 44 -2 11 0 19 5 19 5 0
7 6 4 13 -3 8 1 19 9 25 8 7 13 23 11 37 -1 14 2 25 7 25 6 0 7 5 4 10 -3 6
-1 10 5 10 6 0 9 4 6 8 -3 5 -1 24 3 43 19 72 22 95 12 79 -8 -12 -10 -10 -8
8 1 12 6 21 12 18 7 -2 12 2 12 10 0 7 -5 10 -10 7 -6 -4 -7 3 -3 18 11 35 7
83 -9 109 -4 6 1 7 12 3 16 -6 16 -5 4 10 -7 9 -11 24 -7 32 3 9 2 14 -3 11
-5 -3 -8 11 -7 32 1 20 -1 44 -5 52 -15 29 -22 55 -20 68 1 6 -3 12 -8 12 -6
0 -8 7 -4 15 3 9 -1 23 -10 33 -8 9 -13 25 -12 35 2 11 1 16 -2 13 -3 -3 -19
22 -36 57 -16 34 -36 66 -43 70 -8 4 -14 14 -14 22 0 8 -10 25 -22 38 -41 43
-56 65 -50 73 4 4 1 4 -6 0 -8 -5 -16 1 -21 16 -6 13 -10 20 -10 16 -1 -4 -19
11 -40 32 -22 22 -43 40 -48 40 -4 0 -14 9 -21 20 -7 11 -21 20 -33 20 -11 0
-17 5 -14 10 3 6 -1 10 -10 10 -9 0 -13 5 -10 10 4 6 3 10 -2 9 -24 -4 -43 2
-37 12 4 8 0 9 -15 4 -15 -4 -21 -3 -19 7 2 7 -3 12 -9 10 -7 -1 -13 2 -13 8
0 5 -6 7 -13 4 -7 -2 -22 5 -34 16 -24 22 -38 27 -27 9 3 -6 -5 -3 -20 6 -14
10 -26 14 -26 9 0 -4 -5 -3 -11 3 -6 6 -18 9 -27 6 -10 -4 -13 -2 -8 5 4 7 -1
9 -15 7 -13 -3 -28 0 -36 6 -7 6 -20 9 -28 5 -8 -3 -15 -1 -15 5 0 6 -7 6 -20
-1 -17 -9 -19 -8 -13 7 6 15 4 16 -8 6 -20 -16 -31 -17 -39 -3 -6 9 -13 9 -30
0 -18 -10 -21 -9 -15 1 6 8 4 11 -7 6 -9 -3 -20 -1 -26 5 -6 6 -12 6 -17 -3z
m83 -203 c7 -4 12 -2 12 5 0 8 4 8 13 2 6 -6 26 -9 42 -6 24 3 27 1 15 -8 -12
-9 -11 -10 8 -6 13 3 22 0 22 -6 0 -7 5 -5 10 3 8 12 10 12 10 1 0 -8 3 -11 7
-8 3 4 12 2 20 -4 10 -9 13 -8 13 2 0 11 2 11 9 -1 6 -8 8 -17 6 -20 -2 -3 10
-5 27 -6 36 -1 79 -24 71 -37 -3 -6 -1 -7 6 -3 13 9 149 -77 158 -100 3 -7 8
-12 12 -10 4 3 17 -11 30 -30 13 -19 27 -34 31 -34 5 0 7 -7 6 -15 -1 -9 -5
-14 -8 -13 -3 2 -16 -6 -29 -17 -13 -12 -19 -14 -14 -5 8 13 6 13 -8 1 -9 -7
-14 -17 -11 -22 3 -5 2 -8 -3 -7 -16 5 -73 -21 -73 -33 0 -7 -3 -9 -6 -6 -4 4
-19 -2 -34 -13 -16 -11 -33 -20 -39 -20 -6 0 -11 -4 -11 -9 0 -5 -13 -12 -30
-16 -16 -4 -30 -11 -30 -16 0 -5 -9 -9 -21 -9 -11 0 -18 -4 -15 -9 3 -5 -8
-14 -24 -20 -17 -5 -30 -15 -30 -21 0 -6 -4 -9 -9 -5 -5 3 -17 -2 -25 -11 -9
-8 -16 -13 -16 -9 0 3 -6 3 -12 -2 -21 -13 -36 -12 -42 3 -3 7 -14 11 -25 9
-11 -2 -22 3 -25 11 -4 11 -10 12 -25 4 -14 -7 -22 -7 -27 2 -5 7 -3 8 6 3 9
-5 11 -4 6 4 -6 9 -11 9 -22 0 -8 -6 -14 -8 -14 -3 0 5 -5 2 -10 -6 -6 -10
-10 -11 -10 -2 0 6 -5 12 -11 12 -5 0 -7 -5 -3 -12 5 -8 2 -9 -9 -5 -9 3 -19
2 -22 -3 -3 -5 -13 -6 -22 -3 -11 4 -14 3 -9 -5 4 -7 1 -12 -8 -12 -9 0 -16
-5 -16 -11 0 -5 -4 -7 -10 -4 -5 3 -10 1 -10 -5 0 -5 -13 -24 -30 -41 -16 -18
-27 -35 -24 -40 3 -5 1 -9 -4 -9 -6 0 -13 -7 -16 -16 -4 -10 -2 -13 7 -8 8 5
7 2 -2 -9 -7 -9 -10 -17 -6 -17 4 0 2 -7 -5 -15 -7 -9 -8 -15 -2 -15 20 0 -1
-40 -24 -46 -13 -3 -21 -10 -18 -15 5 -8 -18 -14 -40 -10 -5 1 -6 -5 -2 -14 3
-9 2 -13 -3 -10 -6 3 -25 -4 -43 -15 -18 -11 -45 -25 -60 -31 -16 -6 -25 -16
-21 -22 4 -6 0 -8 -10 -4 -9 3 -19 2 -22 -4 -4 -5 -11 -6 -17 -3 -7 4 -8 2 -4
-5 4 -6 0 -14 -11 -18 -10 -4 -24 -14 -31 -22 -8 -9 -11 -10 -7 -3 3 6 1 12
-4 12 -6 0 -11 -4 -11 -10 0 -5 -7 -10 -15 -10 -8 0 -15 -4 -15 -9 0 -5 -13
-14 -30 -20 -16 -5 -30 -15 -30 -21 0 -6 -4 -9 -9 -5 -5 3 -15 0 -23 -7 -18
-17 -38 -21 -38 -7 0 5 -5 7 -12 3 -6 -4 -8 -3 -5 3 6 9 -1 39 -20 93 -3 8 -7
34 -9 58 -2 23 -6 47 -9 52 -3 6 -1 10 6 10 10 0 10 3 1 12 -15 15 -16 31 0
22 7 -4 8 -3 4 4 -13 22 -15 52 -3 52 7 0 6 4 -3 10 -13 9 -13 10 0 10 13 0
13 1 0 10 -9 6 -11 10 -3 10 7 0 10 6 7 14 -3 8 -1 17 5 21 8 4 8 12 1 26 -8
14 -7 19 1 19 6 0 9 7 5 15 -3 8 -1 15 5 15 6 0 9 7 6 15 -4 8 -2 17 4 20 5 4
7 10 4 15 -3 5 -1 11 5 15 6 4 8 10 5 15 -3 4 2 11 11 14 13 5 14 9 4 21 -10
12 -10 15 2 15 7 0 14 9 15 20 1 11 11 33 22 49 11 15 18 31 16 35 -3 3 -2 4
1 2 9 -7 33 17 27 27 -2 4 1 7 8 7 7 0 10 3 6 6 -3 4 20 32 51 62 31 31 56 60
54 65 -1 5 1 6 6 3 5 -3 18 4 30 14 12 11 26 20 32 20 5 0 10 4 10 9 0 5 13
14 29 21 16 6 32 18 35 27 3 8 11 11 16 8 6 -4 17 -1 25 5 8 7 15 9 15 4 0 -4
7 1 16 12 8 10 12 12 8 4 -7 -12 -5 -13 8 -3 8 7 18 10 21 6 4 -3 7 2 7 12 0
14 3 15 15 5 11 -9 15 -9 15 -1 0 7 5 9 10 6 6 -3 10 0 10 7 0 9 3 9 10 -2 6
-9 10 -11 10 -3 0 7 6 10 14 7 8 -3 17 0 21 6 6 9 10 9 16 -1 7 -11 9 -11 9
-1 0 7 5 10 10 7 6 -3 10 -3 10 2 0 10 162 9 178 -1z m661 -506 c4 0 8 -6 9
-12 1 -15 10 -53 12 -53 4 0 13 -53 13 -77 1 -16 4 -28 7 -28 5 0 5 -149 0
-160 -6 -14 -4 -36 5 -42 6 -5 5 -8 -4 -8 -11 0 -11 -3 0 -17 10 -11 10 -14 2
-9 -8 4 -13 1 -13 -8 0 -9 -5 -16 -11 -16 -8 0 -8 -5 1 -15 7 -9 8 -15 2 -15
-6 0 -9 -11 -8 -25 2 -13 -1 -22 -5 -19 -5 3 -9 2 -10 -3 -3 -32 -11 -59 -19
-61 -6 -2 -10 -15 -10 -28 0 -15 -6 -24 -16 -24 -8 0 -13 -4 -10 -9 3 -5 -4
-20 -15 -35 -11 -14 -17 -26 -13 -26 5 0 -2 -7 -14 -16 -12 -8 -22 -24 -22
-35 0 -11 -4 -18 -9 -14 -9 5 -36 -32 -33 -45 0 -3 -7 -3 -16 -2 -9 2 -14 1
-10 -3 10 -10 -49 -58 -62 -50 -6 3 -8 10 -5 15 3 5 -3 15 -15 22 -11 7 -20
18 -20 25 0 7 -4 13 -10 13 -5 0 -10 7 -10 15 0 8 -5 15 -12 15 -6 0 -8 3 -5
6 4 4 -2 15 -13 24 -10 9 -24 29 -30 44 -6 17 -14 24 -22 20 -7 -4 -8 -3 -4 4
4 6 -3 22 -15 36 -11 13 -20 27 -19 31 1 4 -9 15 -21 26 -12 10 -19 19 -15 19
4 0 2 6 -4 13 -41 49 -49 61 -43 70 3 5 2 8 -3 4 -5 -3 -19 10 -32 29 -12 19
-17 34 -12 34 6 0 8 5 5 10 -3 6 -2 10 2 10 5 0 17 14 27 31 13 22 14 29 5 24
-11 -7 -12 -6 -2 7 7 8 10 18 6 21 -3 4 0 7 8 7 11 0 11 2 -1 10 -12 8 -12 10
-1 10 8 0 11 3 8 7 -4 3 -1 13 6 21 9 13 9 14 0 8 -7 -4 -13 -3 -13 3 0 5 9
13 20 16 11 3 20 11 20 17 0 5 7 7 16 4 8 -3 12 -2 9 4 -3 6 0 10 8 10 8 0 27
7 43 14 15 8 32 12 37 9 6 -3 7 -1 3 5 -6 11 6 16 27 13 4 0 7 4 7 11 0 6 3 8
7 5 3 -4 12 1 20 11 9 10 12 11 7 2 -5 -10 1 -8 16 5 15 13 21 15 16 5 -5 -9
-2 -8 7 2 8 10 17 15 20 11 4 -3 7 -2 7 4 0 9 6 11 49 15 10 1 17 7 15 13 -3
6 6 11 18 12 13 1 24 7 26 13 2 5 8 8 13 4 5 -3 9 0 9 7 0 7 3 9 7 6 3 -4 12
-2 20 4 7 6 13 8 13 5 0 -4 8 0 18 10 16 16 17 16 20 1 2 -9 7 -17 11 -17z
m-759 -92 c0 8 5 10 12 6 7 -4 26 -9 43 -10 16 -1 32 -2 35 -4 3 -1 8 -2 13
-1 4 0 7 -6 7 -14 0 -8 6 -15 13 -15 6 -1 22 -17 34 -36 13 -19 18 -32 11 -28
-8 5 -9 1 -4 -12 12 -29 14 -64 5 -64 -5 0 -9 -11 -9 -25 0 -14 -7 -28 -15
-31 -8 -3 -17 -15 -21 -26 -5 -16 -8 -18 -15 -7 -5 9 -9 9 -9 2 0 -12 -51 -33
-79 -33 -14 0 -14 2 -1 10 8 5 10 10 5 10 -6 0 -15 -4 -20 -9 -6 -6 -25 -2
-50 9 -22 11 -37 19 -32 20 4 0 -1 8 -10 18 -10 11 -21 17 -25 15 -3 -2 -5 8
-4 22 2 14 -1 22 -7 18 -5 -3 -7 0 -5 8 3 8 1 22 -4 32 -6 11 -5 17 3 17 7 0
9 3 6 7 -4 3 -2 12 3 19 6 6 9 16 8 21 -4 12 52 67 72 71 8 2 17 8 19 14 2 6
7 5 12 -3 7 -11 9 -11 9 -1z m-74 -352 c15 -8 31 -13 36 -10 4 3 8 1 8 -4 0
-6 23 -9 50 -8 28 1 50 -2 50 -7 0 -4 5 -5 10 -2 6 3 10 -3 10 -14 0 -12 5
-21 10 -21 6 0 10 -9 10 -20 0 -11 4 -20 9 -20 5 0 12 -7 15 -16 4 -10 2 -13
-7 -9 -6 4 -4 0 6 -8 10 -8 20 -25 22 -38 3 -13 9 -25 15 -27 5 -2 10 -12 10
-23 0 -10 4 -19 10 -19 5 0 6 -7 3 -17 -4 -11 -3 -14 5 -9 7 4 12 1 12 -6 0
-20 24 -68 33 -68 5 0 6 -4 3 -9 -3 -4 3 -19 14 -31 22 -26 26 -35 9 -25 -6 4
-5 -2 3 -14 7 -12 16 -21 21 -21 4 0 6 -4 2 -9 -3 -5 1 -15 8 -23 16 -17 16
-63 -1 -63 -7 0 -17 -7 -22 -15 -8 -12 -10 -12 -10 -1 0 10 -3 11 -13 2 -8 -6
-23 -12 -35 -14 -12 -2 -25 -6 -28 -10 -4 -4 -12 -7 -18 -7 -6 0 -4 5 4 10 8
5 10 10 5 10 -6 0 -16 -5 -22 -11 -8 -8 -55 -13 -123 -13 -91 -2 -113 1 -120
14 -8 13 -9 12 -10 -4 0 -14 -3 -16 -13 -7 -8 6 -17 8 -20 4 -4 -3 -7 -2 -7 4
0 5 -16 10 -35 11 -20 1 -43 9 -52 18 -13 12 -18 13 -21 4 -3 -9 -6 -9 -11 -1
-4 6 -18 14 -31 16 -13 2 -27 10 -32 17 -4 7 -8 9 -8 3 0 -6 -3 -6 -8 1 -4 5
-26 19 -49 31 -23 11 -40 23 -36 27 3 3 -1 6 -10 6 -9 0 -22 9 -29 19 -6 10
-18 17 -25 14 -7 -3 -13 2 -13 10 0 9 -9 19 -20 22 -11 3 -20 11 -20 16 0 13
-26 40 -33 33 -2 -3 -7 4 -10 16 -3 11 -1 20 5 20 5 0 6 4 3 10 -3 5 6 12 20
16 14 3 30 15 36 25 5 11 14 17 19 14 5 -3 18 3 30 15 11 11 25 20 31 20 5 0
7 5 3 11 -4 7 -1 10 7 7 12 -4 30 7 64 40 8 6 18 12 24 12 6 0 11 5 11 10 0 6
7 10 15 10 8 0 15 5 15 10 0 6 7 10 15 10 8 0 15 5 15 12 0 6 3 9 6 6 3 -3 17
5 31 18 14 13 29 22 33 21 4 -1 8 2 8 7 1 11 42 34 63 35 9 1 29 -6 45 -13z"/>
<path d="M1486 2089 c5 -8 -1 -10 -20 -7 -16 3 -33 0 -42 -9 -8 -8 -14 -11
-14 -7 0 5 -18 -9 -40 -31 -21 -21 -37 -42 -34 -47 3 -4 -2 -5 -10 -2 -9 3
-13 11 -9 18 4 7 2 7 -7 -1 -8 -7 -19 -9 -29 -4 -30 16 -123 6 -138 -14 -9
-13 -13 -14 -13 -5 0 7 -15 -3 -33 -23 -18 -20 -38 -37 -45 -37 -6 0 -12 -5
-12 -11 0 -5 6 -7 13 -3 6 4 4 -2 -5 -13 -10 -11 -18 -25 -18 -32 0 -7 -3 -10
-8 -7 -4 2 -7 -11 -6 -29 1 -25 -2 -32 -15 -30 -9 1 -19 -3 -23 -9 -5 -8 -8
-7 -8 2 0 6 -5 12 -11 12 -5 0 -7 -5 -3 -12 5 -7 3 -8 -5 -3 -13 7 -60 -12
-73 -30 -4 -5 -8 -7 -8 -2 0 4 -9 -2 -20 -13 -12 -12 -18 -25 -15 -30 4 -6 -1
-10 -9 -10 -10 0 -13 -6 -10 -15 4 -8 1 -15 -5 -15 -6 0 -11 -5 -11 -11 0 -5
6 -7 13 -3 6 4 3 -3 -8 -16 -12 -14 -14 -20 -5 -15 13 8 13 7 1 -8 -11 -14
-11 -17 0 -17 11 0 11 -2 -1 -10 -8 -5 -10 -10 -4 -10 7 0 15 -7 18 -16 3 -8
2 -12 -4 -9 -6 3 -7 -1 -4 -9 3 -9 11 -13 17 -9 6 3 7 1 3 -6 -7 -10 55 -82
77 -89 4 -1 8 -2 10 -3 24 -7 47 -7 52 1 4 6 -1 7 -11 3 -11 -4 -15 -3 -10 5
3 6 1 14 -5 18 -7 4 -9 3 -5 -4 3 -6 2 -13 -3 -16 -5 -3 -11 4 -14 15 -4 14
-10 18 -18 13 -9 -5 -10 -2 -6 9 4 10 1 17 -6 17 -7 0 -19 15 -25 34 -14 37
-12 116 2 116 4 0 5 7 2 16 -3 9 -2 12 5 9 6 -4 13 2 16 14 3 11 9 18 14 15 5
-3 9 0 9 5 0 6 7 11 15 11 8 0 15 4 15 10 0 5 7 6 17 3 10 -4 14 -2 10 4 -3 5
0 10 8 10 8 0 15 -5 15 -11 0 -6 5 -4 10 4 9 13 10 13 10 0 0 -13 1 -13 10 0
7 11 10 11 10 2 0 -7 5 -10 10 -7 6 3 10 0 11 -7 0 -7 5 -2 11 12 6 14 10 31
9 39 -1 7 2 10 8 6 7 -4 8 0 5 10 -4 9 2 25 11 35 10 11 14 20 10 20 -5 0 7
14 25 30 18 17 40 30 47 30 8 0 11 5 8 10 -7 11 18 14 29 3 3 -4 15 -7 26 -8
16 -1 18 1 7 13 -10 13 -9 14 8 5 11 -5 27 -9 35 -8 8 1 23 -3 33 -8 20 -9 50
9 44 27 -2 6 9 24 25 39 15 15 28 25 28 22 0 -4 6 0 14 8 17 16 107 22 116 6
6 -9 24 -15 53 -18 4 -1 7 -8 7 -16 0 -8 5 -15 10 -15 6 0 10 -7 10 -16 0 -8
4 -12 10 -9 6 4 8 -6 6 -24 -2 -21 1 -31 10 -31 7 0 16 -4 19 -10 4 -6 -1 -7
-10 -3 -13 4 -16 1 -13 -13 2 -10 -3 -24 -11 -30 -11 -9 -12 -12 -1 -19 9 -5
11 -4 6 3 -7 11 6 17 27 13 5 -1 6 3 2 9 -4 6 -2 16 4 23 6 8 6 18 1 27 -5 9
-5 19 2 27 7 9 7 13 -2 13 -6 0 -10 6 -7 13 5 14 -33 87 -45 87 -5 0 -6 5 -3
10 5 9 -16 15 -38 11 -5 -1 -6 3 -3 8 6 9 -31 27 -46 23 -4 -1 -19 3 -33 8
-19 7 -24 7 -19 -1z"/>
<path d="M1235 1889 c-4 -6 -5 -12 -2 -15 2 -3 7 2 10 11 7 17 1 20 -8 4z"/>
<path d="M1239 1853 c-13 -16 -12 -17 4 -4 9 7 17 15 17 17 0 8 -8 3 -21 -13z"/>
<path d="M1240 1801 c-9 -3 -15 -13 -15 -21 0 -8 -3 -17 -6 -20 -4 -3 4 -11
18 -17 14 -7 23 -10 20 -6 -4 3 0 11 8 17 19 15 -3 56 -25 47z"/>
<path d="M1070 1739 c0 -5 5 -7 10 -4 6 3 10 8 10 11 0 2 -4 4 -10 4 -5 0 -10
-5 -10 -11z"/>
<path d="M1330 1741 c0 -7 -4 -9 -10 -6 -5 3 -10 1 -10 -6 0 -7 -3 -10 -6 -6
-3 3 -14 -3 -25 -14 -11 -11 -24 -17 -29 -14 -5 3 -16 -7 -24 -23 -11 -21 -11
-29 -3 -29 7 0 19 -4 27 -7 9 -4 25 2 37 13 11 11 23 18 26 15 2 -2 10 2 17
11 7 8 20 15 29 15 13 0 13 2 2 9 -7 5 -9 10 -4 12 6 2 2 13 -8 23 -11 12 -19
14 -19 7z"/>
<path d="M1427 1727 c-3 -8 0 -14 7 -14 7 0 13 6 13 14 0 7 -4 13 -8 13 -4 0
-9 -6 -12 -13z"/>
<path d="M1174 1595 c-5 -11 -10 -13 -19 -5 -8 7 -12 6 -12 -4 0 -16 42 -15
59 2 11 11 9 12 -6 6 -13 -5 -17 -4 -12 4 4 7 5 12 1 12 -3 0 -8 -7 -11 -15z"/>
<path d="M976 1433 c-6 -14 -5 -15 5 -6 7 7 10 15 7 18 -3 3 -9 -2 -12 -12z"/>
<path d="M820 2220 c0 -6 -4 -10 -10 -10 -5 0 -23 -13 -38 -30 -16 -16 -32
-27 -36 -23 -4 4 -4 -1 0 -11 6 -16 8 -17 16 -2 5 9 14 13 20 10 6 -4 9 -3 6
2 -7 11 17 35 26 27 3 -3 8 2 12 11 3 9 9 14 14 11 4 -2 15 1 24 8 15 11 15
13 -8 15 -14 1 -26 -3 -26 -8z"/>
<path d="M695 2109 c-4 -6 -5 -12 -2 -15 2 -3 7 2 10 11 7 17 1 20 -8 4z"/>
<path d="M2485 1031 c-3 -5 0 -13 6 -17 8 -4 7 -9 -2 -15 -11 -7 -11 -9 1 -9
12 0 12 -2 2 -9 -11 -7 -11 -9 2 -14 9 -4 16 -2 16 3 0 19 2 25 11 37 7 8 4
15 -10 22 -12 7 -22 7 -26 2z"/>
<path d="M2487 944 c4 -10 0 -12 -10 -8 -12 4 -15 1 -12 -14 2 -12 -3 -26 -10
-32 -8 -6 -11 -19 -8 -27 5 -12 3 -14 -8 -8 -8 5 -11 4 -6 0 15 -18 33 -13 32
9 -1 11 5 26 14 33 12 9 13 12 2 13 -8 0 -4 7 9 18 20 16 21 20 7 25 -11 4
-14 2 -10 -9z"/>
<path d="M2424 832 c4 -7 2 -19 -4 -27 -7 -9 -8 -15 -2 -15 16 0 24 32 11 44
-9 8 -10 8 -5 -2z"/>
<path d="M440 729 c-13 -9 -12 -10 3 -5 14 4 23 -6 15 -16 -1 -2 10 -16 25
-32 15 -16 27 -33 27 -38 0 -5 5 -6 10 -3 6 3 10 11 10 16 0 6 -4 7 -10 4 -5
-3 -10 -1 -10 4 0 20 -3 26 -19 38 -9 7 -12 13 -8 13 5 0 2 7 -7 15 -17 18
-17 18 -36 4z"/>
<path d="M2453 705 c0 -8 4 -12 9 -9 5 3 6 10 3 15 -9 13 -12 11 -12 -6z"/>
<path d="M2396 658 c-6 -10 -16 -18 -23 -18 -7 0 -13 -7 -13 -16 0 -10 -6 -14
-15 -10 -8 3 -14 2 -14 -2 3 -19 -2 -33 -9 -28 -5 3 -18 -3 -29 -14 -12 -10
-24 -16 -27 -13 -3 4 -6 1 -6 -6 0 -6 -11 -16 -25 -21 -14 -5 -25 -14 -25 -20
0 -6 -4 -8 -10 -5 -5 3 -10 1 -10 -6 0 -7 -3 -9 -7 -6 -3 4 -12 -1 -20 -11 -8
-9 -11 -10 -7 -3 5 10 -3 8 -22 -5 -16 -12 -37 -24 -46 -27 -10 -4 -18 -12
-18 -18 0 -8 -4 -8 -15 1 -12 10 -15 10 -15 -3 0 -10 -6 -14 -15 -11 -8 4 -15
1 -15 -7 0 -7 -2 -10 -6 -7 -3 3 -27 -3 -53 -13 -27 -10 -51 -15 -55 -12 -3 4
-6 1 -6 -5 0 -7 -3 -11 -7 -11 -5 1 -11 0 -15 -1 -18 -6 -29 -8 -54 -9 -17 -1
-23 -5 -18 -13 6 -10 4 -10 -8 0 -9 7 -19 9 -21 5 -3 -5 -23 -10 -43 -11 -21
-2 -45 -8 -53 -15 -12 -10 -13 -9 -7 1 10 16 -25 13 -36 -3 -5 -6 -11 -5 -17
4 -6 9 -14 10 -22 5 -8 -5 -34 -9 -60 -10 -25 0 -50 -4 -56 -7 -7 -4 -15 -2
-19 4 -5 8 -3 9 6 4 9 -6 11 -4 5 4 -5 9 -10 10 -18 2 -15 -15 -30 -14 -21 1
4 7 3 8 -5 4 -6 -4 -19 -2 -28 6 -9 7 -14 8 -10 2 4 -7 0 -14 -8 -18 -8 -3
-15 -1 -15 5 0 6 -7 9 -15 5 -8 -3 -15 0 -15 6 0 7 -5 6 -15 -2 -11 -9 -15 -9
-15 -1 0 7 -5 9 -10 6 -6 -4 -18 -1 -27 7 -14 11 -16 11 -8 -2 8 -13 6 -13 -7
-2 -9 7 -35 14 -57 15 -23 1 -41 5 -41 10 0 4 -8 7 -18 7 -10 0 -22 3 -26 7
-3 4 -16 8 -28 10 -12 2 -25 7 -28 11 -3 4 -14 9 -25 10 -11 2 -28 11 -37 19
-11 10 -18 11 -18 5 0 -6 -7 -9 -15 -6 -8 4 -12 10 -9 15 3 5 -4 9 -15 9 -12
0 -21 5 -21 11 0 5 -4 8 -9 5 -5 -4 -11 -2 -13 4 -2 6 -14 12 -28 15 -14 3
-33 15 -43 27 -10 13 -15 16 -11 9 4 -9 -6 -5 -24 8 -18 12 -32 27 -32 32 0 5
-3 8 -7 7 -14 -5 -53 28 -45 37 4 4 0 6 -10 2 -11 -4 -18 1 -22 16 -5 18 -8
20 -16 7 -5 -8 -10 -11 -10 -6 0 5 -10 -3 -23 -18 -17 -19 -26 -23 -34 -15 -9
9 -11 5 -9 -14 2 -15 0 -25 -4 -22 -9 6 -40 -32 -32 -40 4 -4 2 -5 -3 -3 -6 1
-21 -7 -35 -19 -16 -16 -19 -23 -9 -23 12 0 12 -2 -1 -10 -12 -8 -10 -10 9
-10 13 0 21 -3 18 -6 -9 -9 65 -64 77 -57 5 4 7 -1 3 -11 -4 -10 -3 -15 3 -11
5 3 18 -3 30 -15 11 -11 27 -20 35 -20 9 0 18 -7 21 -15 4 -8 10 -12 15 -9 5
3 9 1 9 -3 0 -5 16 -15 35 -22 19 -7 35 -17 35 -22 0 -6 4 -7 10 -4 5 3 10 0
10 -7 0 -11 2 -10 9 0 7 11 9 11 14 -2 4 -9 10 -16 14 -15 4 1 11 0 16 -1 4
-1 10 -3 15 -4 4 -1 17 -7 28 -14 12 -6 24 -8 28 -5 3 3 6 1 6 -5 0 -6 7 -9
16 -5 9 3 20 0 24 -7 7 -12 27 -17 88 -22 6 -1 12 -5 12 -10 0 -4 18 -8 41 -8
29 0 38 -3 33 -13 -5 -8 -2 -8 9 2 14 11 17 11 17 0 0 -11 2 -11 10 1 6 9 10
11 10 3 0 -17 340 -16 340 1 0 6 4 6 9 -3 6 -10 10 -10 16 -1 6 9 10 9 16 -1
6 -9 9 -10 9 -2 0 6 11 10 25 8 14 -1 25 2 25 8 0 6 3 7 7 4 3 -4 13 -1 21 6
13 10 14 9 8 -1 -7 -11 -4 -12 11 -3 11 6 23 7 27 4 3 -3 6 -1 6 6 0 7 5 9 10
6 6 -3 10 0 10 7 0 11 2 11 9 0 7 -11 11 -11 23 2 9 8 18 12 22 9 3 -3 12 0
20 6 8 7 20 10 26 6 5 -3 10 -1 10 5 0 7 7 10 15 6 8 -3 15 -1 15 4 0 6 9 10
20 10 11 0 23 6 26 14 3 8 11 13 19 10 7 -3 20 2 29 11 9 9 20 13 26 10 5 -3
10 -1 10 5 0 6 16 18 35 26 19 8 35 19 35 25 0 5 4 8 9 4 5 -3 12 -1 16 5 4 6
11 7 17 4 7 -5 8 -2 4 5 -5 8 0 14 13 18 12 3 21 9 21 14 0 5 5 9 10 9 6 0 22
12 35 26 14 15 25 24 25 20 0 -4 15 7 34 26 19 18 32 36 29 40 -2 4 3 5 12 2
9 -4 15 -3 13 2 -1 5 14 26 35 46 21 20 38 39 38 42 -1 3 2 6 5 5 4 0 15 15
26 33 11 18 26 36 32 40 6 4 0 6 -13 5 -13 -1 -29 -9 -35 -19z"/>
<path d="M526 621 c-3 -4 6 -8 20 -9 13 -1 24 0 24 2 0 7 -40 14 -44 7z"/>
</g>
</svg>
